<svg xmlns="http://www.w3.org/2000/svg" width="24" height="24" fill="none" stroke="#000"
  stroke-width="2" stroke-linecap="round" stroke-linejoin="round">
  <path
    d="M13.626 5.045c-.206.109-.48.388-.588.599a.792.792 0 0 0 .002.719c.061.123.771.861 2.313 2.407L17.578 11h-6.882c-7.39 0-7.084-.008-7.374.199-.222.158-.302.369-.302.801 0 .331.013.403.1.558.11.197.294.34.515.401.095.027 2.546.041 7.044.041h6.899l-2.225 2.23c-1.542 1.546-2.252 2.284-2.313 2.407-.177.353-.088.717.259 1.064.347.347.711.436 1.064.259.124-.062 1.082-.989 3.198-3.094 1.662-1.653 3.072-3.04 3.135-3.082.154-.102.353-.545.353-.784 0-.256-.198-.679-.373-.799-.075-.051-1.486-1.438-3.136-3.083-2.013-2.006-3.055-3.018-3.168-3.074a.884.884 0 0 0-.746.001"
    fill="#000" fill-rule="evenodd" stroke="none" />
</svg>